<mxfile host="app.diagrams.net" modified="2022-07-07T14:21:18.616Z" agent="5.0 (Windows NT 10.0; Win64; x64) AppleWebKit/537.36 (KHTML, like Gecko) Chrome/103.0.0.0 Safari/537.36" etag="0V1Y9XpOVZMRIxGr_5Ky" version="20.0.4" type="github">
  <diagram id="YuKm9scpQru0ue3yQhqG" name="US2113">
    <mxGraphModel dx="1662" dy="762" grid="1" gridSize="10" guides="1" tooltips="1" connect="1" arrows="1" fold="1" page="1" pageScale="1" pageWidth="827" pageHeight="1169" math="0" shadow="0">
      <root>
        <mxCell id="0" />
        <mxCell id="1" parent="0" />
        <mxCell id="0VJbSI8L1WGAqxYXu6Ws-1" value="StockGoodsMovementWS" style="rounded=0;whiteSpace=wrap;html=1;direction=west;" vertex="1" parent="1">
          <mxGeometry x="30" y="180" width="750" height="50" as="geometry" />
        </mxCell>
        <mxCell id="0VJbSI8L1WGAqxYXu6Ws-2" value="Service : IntegrateRecService : transferREC()" style="rounded=0;whiteSpace=wrap;html=1;" vertex="1" parent="1">
          <mxGeometry x="100" y="220" width="330" height="70" as="geometry" />
        </mxCell>
        <mxCell id="0VJbSI8L1WGAqxYXu6Ws-3" value="processEffectsTransfer()" style="rounded=0;whiteSpace=wrap;html=1;" vertex="1" parent="1">
          <mxGeometry x="280" y="270" width="250" height="60" as="geometry" />
        </mxCell>
        <mxCell id="0VJbSI8L1WGAqxYXu6Ws-4" value="transferSubUnitRec()" style="rounded=1;whiteSpace=wrap;html=1;" vertex="1" parent="1">
          <mxGeometry x="380" y="310" width="240" height="60" as="geometry" />
        </mxCell>
        <mxCell id="0VJbSI8L1WGAqxYXu6Ws-5" value="findGoodsToMove()" style="rounded=0;whiteSpace=wrap;html=1;" vertex="1" parent="1">
          <mxGeometry x="490" y="360" width="180" height="60" as="geometry" />
        </mxCell>
        <mxCell id="0VJbSI8L1WGAqxYXu6Ws-6" value="handleReception()" style="rounded=0;whiteSpace=wrap;html=1;" vertex="1" parent="1">
          <mxGeometry x="600" y="410" width="120" height="60" as="geometry" />
        </mxCell>
        <mxCell id="0VJbSI8L1WGAqxYXu6Ws-11" style="edgeStyle=orthogonalEdgeStyle;rounded=0;orthogonalLoop=1;jettySize=auto;html=1;exitX=1;exitY=0.5;exitDx=0;exitDy=0;entryX=0;entryY=0;entryDx=0;entryDy=27.5;entryPerimeter=0;" edge="1" parent="1" source="0VJbSI8L1WGAqxYXu6Ws-7" target="0VJbSI8L1WGAqxYXu6Ws-10">
          <mxGeometry relative="1" as="geometry" />
        </mxCell>
        <mxCell id="0VJbSI8L1WGAqxYXu6Ws-7" value="goodsMovementCommon" style="rounded=0;whiteSpace=wrap;html=1;" vertex="1" parent="1">
          <mxGeometry x="850" y="175" width="420" height="60" as="geometry" />
        </mxCell>
        <mxCell id="0VJbSI8L1WGAqxYXu6Ws-10" value="" style="shape=cylinder3;whiteSpace=wrap;html=1;boundedLbl=1;backgroundOutline=1;size=15;" vertex="1" parent="1">
          <mxGeometry x="1350" y="250" width="60" height="80" as="geometry" />
        </mxCell>
        <mxCell id="0VJbSI8L1WGAqxYXu6Ws-13" value="NSK_FIRST_RECEPTION" style="swimlane;fontStyle=0;childLayout=stackLayout;horizontal=1;startSize=30;horizontalStack=0;resizeParent=1;resizeParentMax=0;resizeLast=0;collapsible=1;marginBottom=0;" vertex="1" parent="1">
          <mxGeometry x="1420" y="250" width="190" height="210" as="geometry" />
        </mxCell>
        <mxCell id="0VJbSI8L1WGAqxYXu6Ws-14" value="STYLE_ID" style="text;strokeColor=none;fillColor=none;align=left;verticalAlign=middle;spacingLeft=4;spacingRight=4;overflow=hidden;points=[[0,0.5],[1,0.5]];portConstraint=eastwest;rotatable=0;" vertex="1" parent="0VJbSI8L1WGAqxYXu6Ws-13">
          <mxGeometry y="30" width="190" height="30" as="geometry" />
        </mxCell>
        <mxCell id="0VJbSI8L1WGAqxYXu6Ws-15" value="PRODUCT_CODE" style="text;strokeColor=none;fillColor=none;align=left;verticalAlign=middle;spacingLeft=4;spacingRight=4;overflow=hidden;points=[[0,0.5],[1,0.5]];portConstraint=eastwest;rotatable=0;" vertex="1" parent="0VJbSI8L1WGAqxYXu6Ws-13">
          <mxGeometry y="60" width="190" height="30" as="geometry" />
        </mxCell>
        <mxCell id="0VJbSI8L1WGAqxYXu6Ws-16" value="LOCATION_ID" style="text;strokeColor=none;fillColor=none;align=left;verticalAlign=middle;spacingLeft=4;spacingRight=4;overflow=hidden;points=[[0,0.5],[1,0.5]];portConstraint=eastwest;rotatable=0;" vertex="1" parent="0VJbSI8L1WGAqxYXu6Ws-13">
          <mxGeometry y="90" width="190" height="30" as="geometry" />
        </mxCell>
        <mxCell id="0VJbSI8L1WGAqxYXu6Ws-17" value="FIRST_RECEPTION_DATE" style="text;strokeColor=none;fillColor=none;align=left;verticalAlign=middle;spacingLeft=4;spacingRight=4;overflow=hidden;points=[[0,0.5],[1,0.5]];portConstraint=eastwest;rotatable=0;" vertex="1" parent="0VJbSI8L1WGAqxYXu6Ws-13">
          <mxGeometry y="120" width="190" height="30" as="geometry" />
        </mxCell>
        <mxCell id="0VJbSI8L1WGAqxYXu6Ws-18" value="CREATION_DATE" style="text;strokeColor=none;fillColor=none;align=left;verticalAlign=middle;spacingLeft=4;spacingRight=4;overflow=hidden;points=[[0,0.5],[1,0.5]];portConstraint=eastwest;rotatable=0;" vertex="1" parent="0VJbSI8L1WGAqxYXu6Ws-13">
          <mxGeometry y="150" width="190" height="30" as="geometry" />
        </mxCell>
        <mxCell id="0VJbSI8L1WGAqxYXu6Ws-19" value="UPDATE_DATE" style="text;strokeColor=none;fillColor=none;align=left;verticalAlign=middle;spacingLeft=4;spacingRight=4;overflow=hidden;points=[[0,0.5],[1,0.5]];portConstraint=eastwest;rotatable=0;" vertex="1" parent="0VJbSI8L1WGAqxYXu6Ws-13">
          <mxGeometry y="180" width="190" height="30" as="geometry" />
        </mxCell>
        <mxCell id="0VJbSI8L1WGAqxYXu6Ws-20" value="Si firstReceptionDate n&#39;existe pas ====&amp;gt; INSERT :&amp;nbsp; firstReceptionDate = date mouvement&lt;br&gt;Si firstReceptionDate &amp;lt; dateMouvement ===========================&amp;gt; ne rien faire&lt;br&gt;Si firstReceptionDate &amp;gt; dateMouvemen =&amp;gt;UPDATE : firstReceptionDate = date mouvement" style="shape=note;whiteSpace=wrap;html=1;backgroundOutline=1;darkOpacity=0.05;" vertex="1" parent="1">
          <mxGeometry x="260" y="450" width="550" height="100" as="geometry" />
        </mxCell>
        <mxCell id="0VJbSI8L1WGAqxYXu6Ws-22" value="FirstReceptionMapper" style="swimlane;fontStyle=0;childLayout=stackLayout;horizontal=1;startSize=30;horizontalStack=0;resizeParent=1;resizeParentMax=0;resizeLast=0;collapsible=1;marginBottom=0;" vertex="1" parent="1">
          <mxGeometry x="1080" y="250" width="180" height="120" as="geometry" />
        </mxCell>
        <mxCell id="0VJbSI8L1WGAqxYXu6Ws-23" value="findById" style="text;strokeColor=none;fillColor=none;align=left;verticalAlign=middle;spacingLeft=4;spacingRight=4;overflow=hidden;points=[[0,0.5],[1,0.5]];portConstraint=eastwest;rotatable=0;" vertex="1" parent="0VJbSI8L1WGAqxYXu6Ws-22">
          <mxGeometry y="30" width="180" height="30" as="geometry" />
        </mxCell>
        <mxCell id="0VJbSI8L1WGAqxYXu6Ws-24" value="insert" style="text;strokeColor=none;fillColor=none;align=left;verticalAlign=middle;spacingLeft=4;spacingRight=4;overflow=hidden;points=[[0,0.5],[1,0.5]];portConstraint=eastwest;rotatable=0;" vertex="1" parent="0VJbSI8L1WGAqxYXu6Ws-22">
          <mxGeometry y="60" width="180" height="30" as="geometry" />
        </mxCell>
        <mxCell id="0VJbSI8L1WGAqxYXu6Ws-25" value="update" style="text;strokeColor=none;fillColor=none;align=left;verticalAlign=middle;spacingLeft=4;spacingRight=4;overflow=hidden;points=[[0,0.5],[1,0.5]];portConstraint=eastwest;rotatable=0;" vertex="1" parent="0VJbSI8L1WGAqxYXu6Ws-22">
          <mxGeometry y="90" width="180" height="30" as="geometry" />
        </mxCell>
        <mxCell id="0VJbSI8L1WGAqxYXu6Ws-29" value="FirstReceptionService" style="swimlane;fontStyle=0;childLayout=stackLayout;horizontal=1;startSize=30;horizontalStack=0;resizeParent=1;resizeParentMax=0;resizeLast=0;collapsible=1;marginBottom=0;" vertex="1" parent="1">
          <mxGeometry x="870" y="260" width="160" height="60" as="geometry" />
        </mxCell>
        <mxCell id="0VJbSI8L1WGAqxYXu6Ws-30" value="handleReception()" style="text;strokeColor=none;fillColor=none;align=left;verticalAlign=middle;spacingLeft=4;spacingRight=4;overflow=hidden;points=[[0,0.5],[1,0.5]];portConstraint=eastwest;rotatable=0;" vertex="1" parent="0VJbSI8L1WGAqxYXu6Ws-29">
          <mxGeometry y="30" width="160" height="30" as="geometry" />
        </mxCell>
      </root>
    </mxGraphModel>
  </diagram>
</mxfile>
